<?xml version="1.0" standalone="no"?>
<!DOCTYPE svg PUBLIC "-//W3C//DTD SVG 20010904//EN"
 "http://www.w3.org/TR/2001/REC-SVG-20010904/DTD/svg10.dtd">
<svg version="1.0" xmlns="http://www.w3.org/2000/svg"
 width="980.000000pt" height="980.000000pt" viewBox="0 0 980.000000 980.000000"
 preserveAspectRatio="xMidYMid meet">

<g transform="translate(0.000000,980.000000) scale(0.100000,-0.100000)"
fill="#000000" stroke="none">
<path d="M1677 7543 c-4 -3 -7 -587 -7 -1297 1 -1198 2 -1293 18 -1322 9 -17
487 -618 1061 -1337 758 -948 1053 -1311 1077 -1322 28 -13 153 -15 1066 -13
1025 3 1033 3 1036 23 1 14 -655 841 -2079 2620 -1144 1430 -2092 2612 -2105
2628 -23 26 -53 35 -67 20z"/>
<path d="M6700 5835 c-756 -944 -1379 -1728 -1385 -1742 -21 -56 -63 -54 1045
-51 954 3 1017 4 1048 21 37 20 708 852 717 889 3 13 4 601 3 1308 l-3 1285
-25 3 c-22 3 -173 -182 -1400 -1713z"/>
</g>
</svg>
